<?xml version="1.0" encoding="UTF-8" standalone="no"?>
<!DOCTYPE svg PUBLIC "-//W3C//DTD SVG 1.1//EN" "http://www.w3.org/Graphics/SVG/1.1/DTD/svg11.dtd">
<svg version="1.1" xmlns="http://www.w3.org/2000/svg" xmlns:xlink="http://www.w3.org/1999/xlink" preserveAspectRatio="xMidYMid meet" viewBox="0 0 640 640" width="640" height="640"><defs><path d="M435 507.62C435 571.09 383.47 622.62 320 622.62C256.53 622.62 205 571.09 205 507.62C205 444.15 256.53 392.62 320 392.62C383.47 392.62 435 444.15 435 507.62Z" id="amxEqgGAJ"></path><path d="M372.25 46.79C387.13 46.79 399.19 58.85 399.19 73.72C399.19 153.15 399.19 364.51 399.19 443.95C399.19 458.82 387.13 470.88 372.25 470.88C345.97 470.88 294.03 470.88 267.75 470.88C252.87 470.88 240.81 458.82 240.81 443.95C240.81 364.51 240.81 153.15 240.81 73.72C240.81 58.85 252.87 46.79 267.75 46.79C294.03 46.79 345.97 46.79 372.25 46.79Z" id="e10d54SYs4"></path><path d="M399.19 72.33C399.19 102.65 363.7 127.27 320 127.27C276.3 127.27 240.81 102.65 240.81 72.33C240.81 42 276.3 17.38 320 17.38C363.7 17.38 399.19 42 399.19 72.33Z" id="e9ulfzus7"></path></defs><g><g><g><g><use xlink:href="#amxEqgGAJ" opacity="1" fill="#7d7d7d" fill-opacity="1"></use></g><g><use xlink:href="#e10d54SYs4" opacity="1" fill="#7d7d7d" fill-opacity="1"></use></g><g><use xlink:href="#e9ulfzus7" opacity="1" fill="#7d7d7d" fill-opacity="1"></use></g></g></g></g></svg>